# xmcd
#
# Track frame offsets:
#	150
#	19536
#	36014
#	57160
#	75718
#	90822
#	106563
#	122452
#	142670
#	161787
#	178900
#	198022
#	214335
#	235437
#	254009
#	269037
#	284725
#	300610
#
# Disc length: 4277 seconds
#
# Revision: 1
# Processed by: cddbd v1.5.1PL2 Copyright (c) Steve Scherf et al.
# Submitted via: audiograbber 1.82.01
#
DISCID=f510b312
DTITLE=Obra de Amor - Com ele é vencer
DYEAR=2005
DGENRE=Gospel
TTITLE0=Com ele é vencer
TTITLE1=Cidade do Céu
TTITLE2=Deixa Jesus te tocar
TTITLE3=Forças pra lutar
TTITLE4=Há um Deus
TTITLE5=Igreja de Poder
TTITLE6=Jesus Meu Grande Amor
TTITLE7=Nossa União
TTITLE8=Santo e Poderoso
TTITLE9=Todo Poderoso
TTITLE10=PB 1
TTITLE11=PB 2
TTITLE12=PB 3
TTITLE13=PB 4
TTITLE14=PB 5
TTITLE15=PB 6
TTITLE16=PB 7
TTITLE17=PB 8
EXTD=
EXTT0=
EXTT1=
EXTT2=
EXTT3=
EXTT4=
EXTT5=
EXTT6=
EXTT7=
EXTT8=
EXTT9=
EXTT10=
EXTT11=
EXTT12=
EXTT13=
EXTT14=
EXTT15=
EXTT16=
EXTT17=
PLAYORDER=
